<?xml version="1.0" standalone="no"?>
<!DOCTYPE svg PUBLIC "-//W3C//DTD SVG 20010904//EN"
 "http://www.w3.org/TR/2001/REC-SVG-20010904/DTD/svg10.dtd">
<svg version="1.0" xmlns="http://www.w3.org/2000/svg"
 width="228.000000pt" height="228.000000pt" viewBox="0 0 228.000000 228.000000"
 preserveAspectRatio="xMidYMid meet">
<metadata>
Created by potrace 1.14, written by Peter Selinger 2001-2017
</metadata>
<g transform="translate(0.000000,228.000000) scale(0.100000,-0.100000)"
fill="#000000" stroke="none">
<path d="M6 1944 c-3 -9 -6 -390 -6 -849 0 -695 2 -834 14 -844 10 -8 241 -11
879 -9 759 3 868 5 881 18 9 9 126 195 261 415 165 269 245 409 245 428 0 18
-81 159 -246 430 -136 221 -253 408 -262 415 -12 9 -205 12 -888 12 -786 0
-872 -2 -878 -16z m1868 -247 l96 -157 0 -438 0 -437 -101 -165 c-56 -91 -105
-169 -110 -175 -5 -5 -9 318 -9 780 0 672 2 787 14 770 7 -11 57 -91 110 -178z
m-417 -52 c29 -9 55 -20 58 -25 7 -11 -15 -90 -24 -90 -3 1 -31 9 -61 20 -104
37 -229 22 -288 -33 -80 -75 -67 -201 28 -272 19 -15 85 -50 146 -79 186 -89
248 -165 248 -306 0 -166 -93 -268 -274 -300 -96 -17 -254 5 -317 46 -21 13
-21 15 -7 58 l15 43 62 -25 c74 -30 203 -41 263 -22 162 52 195 250 59 354
-24 18 -83 49 -132 69 -154 65 -232 139 -253 243 -26 123 31 241 144 301 81
43 223 51 333 18z m-667 -45 l0 -50 -215 0 -215 0 0 -185 0 -185 200 0 200 0
0 -45 0 -45 -200 0 -200 0 0 -210 0 -210 230 0 230 0 0 -50 0 -50 -290 0 -290
0 0 540 0 540 275 0 275 0 0 -50z"/>
</g>
</svg>
