<svg xmlns="http://www.w3.org/2000/svg" viewBox="0 0 455.63 201.02"><defs><style>.cls-1,.cls-8,.cls-9{font-size:72px;}.cls-1,.cls-11,.cls-12,.cls-13,.cls-8,.cls-9{font-family:YuGothic-Bold, Yu Gothic;font-weight:700;}.cls-2{letter-spacing:-0.02em;}.cls-3{letter-spacing:-0.05em;}.cls-4{letter-spacing:-0.1em;}.cls-5{letter-spacing:-0.23em;}.cls-6{letter-spacing:-0.09em;}.cls-7{letter-spacing:-0.04em;}.cls-12,.cls-8{fill:none;stroke-width:12px;}.cls-8{stroke:#144da0;}.cls-9{fill:#70acce;}.cls-10{font-size:27px;font-family:KozGoPr6N-Regular-90ms-RKSJ-H, Kozuka Gothic Pr6N;}.cls-10,.cls-13,.cls-14{fill:#fff;}.cls-11,.cls-12,.cls-13{font-size:59px;}.cls-12{stroke:#70acce;}</style></defs><g id="レイヤー_2" data-name="レイヤー 2"><g id="Layer_1のコピー_2" data-name="Layer 1のコピー 2"><g id="Layer_2のコピー" data-name="Layer 2のコピー"><text class="cls-1" transform="translate(34.75 146.49)">E<tspan class="cls-2" x="46.65" y="0">S</tspan><tspan class="cls-3" x="92.32" y="0">エ</tspan><tspan class="cls-4" x="160.73" y="0">デ</tspan><tspan class="cls-5" x="225.25" y="0">ィ</tspan><tspan class="cls-6" x="280.41" y="0">タ</tspan><tspan class="cls-7" x="345.83" y="0">ー</tspan></text><text class="cls-8" transform="translate(34.75 146.49)">E<tspan class="cls-2" x="46.65" y="0">S</tspan><tspan class="cls-3" x="92.32" y="0">エ</tspan><tspan class="cls-4" x="160.73" y="0">デ</tspan><tspan class="cls-5" x="225.25" y="0">ィ</tspan><tspan class="cls-6" x="280.41" y="0">タ</tspan><tspan class="cls-7" x="345.83" y="0">ー</tspan></text><text class="cls-9" transform="translate(34.75 146.49)">E<tspan class="cls-2" x="46.65" y="0">S</tspan><tspan class="cls-3" x="92.32" y="0">エ</tspan><tspan class="cls-4" x="160.73" y="0">デ</tspan><tspan class="cls-5" x="225.25" y="0">ィ</tspan><tspan class="cls-6" x="280.41" y="0">タ</tspan><tspan class="cls-7" x="345.83" y="0">ー</tspan></text><text class="cls-10" transform="translate(164.03 63.62)">生のための</text><text class="cls-11" transform="translate(33.4 57.91)">就活</text><text class="cls-12" transform="translate(33.4 57.91)">就活</text><text class="cls-13" transform="translate(33.4 57.91)">就活</text><path class="cls-14" d="M45.16,194.73a16.38,16.38,0,0,1-2.95-.25,13.25,13.25,0,0,1-2.6-.72l.25-1.8a18.54,18.54,0,0,0,2.81.83,13.44,13.44,0,0,0,2.71.29,6.08,6.08,0,0,0,3.48-.81A2.78,2.78,0,0,0,50,189.82a3.35,3.35,0,0,0-2-3.13l-4.61-2.36a6.59,6.59,0,0,1-2.41-1.9,4.36,4.36,0,0,1-.83-2.7,4.65,4.65,0,0,1,1.45-3.7,6.42,6.42,0,0,1,4.29-1.26,9.23,9.23,0,0,1,3.33.57,8.09,8.09,0,0,1,2.74,1.77l-1.23,1.24a9.85,9.85,0,0,0-2.43-1.45,6.26,6.26,0,0,0-2.39-.48,4.52,4.52,0,0,0-2.92.82,3,3,0,0,0-1,2.45,2.72,2.72,0,0,0,.53,1.73,4.49,4.49,0,0,0,1.57,1.22l4.2,2.12A7.33,7.33,0,0,1,51,186.89a4.8,4.8,0,0,1,.9,2.92,4.3,4.3,0,0,1-1.67,3.69A8.46,8.46,0,0,1,45.16,194.73Z"/><path class="cls-14" d="M61.14,194.46,55,180h2l5.36,12.95h.34l0,1.55ZM55.28,201l-.08-1.7,1.36-.2A6.15,6.15,0,0,0,59,198.2a6.85,6.85,0,0,0,1.93-2.08,18.86,18.86,0,0,0,1.7-3.63L67.09,180h2l-5,13.21a21.87,21.87,0,0,1-2,4.21,8,8,0,0,1-2.28,2.41,6.79,6.79,0,0,1-2.89,1Z"/><path class="cls-14" d="M77.67,194.73a4.88,4.88,0,0,1-3.7-1.36,5.28,5.28,0,0,1-1.31-3.83V180h1.81v9.58a3.4,3.4,0,0,0,1,2.58A3.64,3.64,0,0,0,78,193a3.76,3.76,0,0,0,3-1.21,6.32,6.32,0,0,0,1-4.05l.74,3.91H82a4,4,0,0,1-1.52,2.26A4.71,4.71,0,0,1,77.67,194.73Zm4.43-4.37V180h1.82v10.49Zm.25,4.23-.18-3.47-.07-2.54h1.82v4.33l2,.19v1.36Z"/><path class="cls-14" d="M89.25,194.46V174h1.82v20.51Zm1-5.77V187H92a9,9,0,0,0,3.79-.69,5.11,5.11,0,0,0,2.34-2.24A12.91,12.91,0,0,0,99.37,180h1.91q-.65,4.51-2.78,6.62a8.3,8.3,0,0,1-6.09,2.11Zm9.77,5.77-4.14-7.33,1.63-.85,4.75,8.18Z"/><path class="cls-14" d="M109.36,194.73a5.07,5.07,0,0,1-3.38-1,3.57,3.57,0,0,1-1.2-2.88,4,4,0,0,1,1.62-3.44,8,8,0,0,1,4.74-1.16,24.74,24.74,0,0,1,2.69.13,8,8,0,0,1,2,.43l-.29,1.39a7.83,7.83,0,0,0-2.09-.33c-.8,0-1.58,0-2.32,0q-4.52,0-4.51,2.92a2.15,2.15,0,0,0,.77,1.78,3.37,3.37,0,0,0,2.16.62,6.27,6.27,0,0,0,2.65-.52,4.45,4.45,0,0,0,1.78-1.37,3.07,3.07,0,0,0,.65-1.89v-1.66l1,3.71h-1.17l.3-.32a3.18,3.18,0,0,1-.77,1.92,4.59,4.59,0,0,1-1.88,1.28A7.13,7.13,0,0,1,109.36,194.73Zm5.62-.14-.22-5.23-.17-.18v-3.32a4,4,0,0,0-1.2-3.22,5.94,5.94,0,0,0-3.75-1.06l-3.08-.06.27-1.69,2.71,0q3.55.06,5.2,1.57a6.12,6.12,0,0,1,1.64,4.69v6.75l2.49.22v1.36Z"/><path class="cls-14" d="M120.83,181.63V180h12.69v1.67Zm4.17,6v-12h1.84v12Zm5.49,7.11a5.43,5.43,0,0,1-4.15-1.44,6.26,6.26,0,0,1-1.34-4.4v-2.36h1.84v2.32a4.55,4.55,0,0,0,1,3.15,3.9,3.9,0,0,0,3,1c.53,0,1,0,1.54-.07s1-.12,1.56-.2l.21,1.65c-.6.11-1.19.19-1.76.25S131.12,194.73,130.49,194.73Z"/><path class="cls-14" d="M143.15,194.73c-1.07,0-2,0-2.72-.1a12.5,12.5,0,0,1-2-.31l.22-1.74c.93.15,1.76.26,2.47.33a18.15,18.15,0,0,0,2,.11,10,10,0,0,0,3.89-.56,2,2,0,0,0,.65-3.21,3.83,3.83,0,0,0-1.79-.85l-3.26-.82a7,7,0,0,1-3.06-1.42,3,3,0,0,1-.94-2.33,3.34,3.34,0,0,1,1.77-3.16,12.46,12.46,0,0,1,5.72-1c.63,0,1.23,0,1.78.06s1.16.11,1.83.21l-.21,1.63c-.74-.07-1.38-.12-1.93-.15s-1.07,0-1.55,0a11.43,11.43,0,0,0-4.23.57,1.9,1.9,0,0,0-1.31,1.82,1.57,1.57,0,0,0,.65,1.27,5.67,5.67,0,0,0,2.14.88l2.6.63a7,7,0,0,1,3.22,1.5,3.39,3.39,0,0,1,1,2.57,3.35,3.35,0,0,1-1.65,3.12A10.92,10.92,0,0,1,143.15,194.73Z"/><path class="cls-14" d="M159.7,194.73a4.88,4.88,0,0,1-3.7-1.36,5.28,5.28,0,0,1-1.31-3.83V180h1.81v9.58a3.4,3.4,0,0,0,.95,2.58,3.64,3.64,0,0,0,2.62.9,3.76,3.76,0,0,0,3-1.21,6.32,6.32,0,0,0,1-4.05l.74,3.91H164a4,4,0,0,1-1.52,2.26A4.68,4.68,0,0,1,159.7,194.73Zm4.43-4.37V180H166v10.49Zm.25,4.23-.18-3.47-.07-2.54H166v4.33l2,.19v1.36Z"/><path class="cls-14" d="M187.69,194.46V175h1.81v19.42Zm0-17.74V175H200.1v1.68Zm0,8.86v-1.69h9.95v1.69Zm0,8.88v-1.68H200.1v1.68Z"/><path class="cls-14" d="M209.22,194.73a16.18,16.18,0,0,1-2.94-.25,13.16,13.16,0,0,1-2.61-.72l.25-1.8a18.65,18.65,0,0,0,2.82.83,13.34,13.34,0,0,0,2.7.29,6.08,6.08,0,0,0,3.48-.81,2.79,2.79,0,0,0,1.16-2.45,3.34,3.34,0,0,0-2-3.13l-4.61-2.36a6.59,6.59,0,0,1-2.41-1.9,4.36,4.36,0,0,1-.83-2.7,4.65,4.65,0,0,1,1.46-3.7,6.38,6.38,0,0,1,4.28-1.26,9.23,9.23,0,0,1,3.33.57,8.09,8.09,0,0,1,2.74,1.77l-1.23,1.24a9.81,9.81,0,0,0-2.42-1.45,6.34,6.34,0,0,0-2.4-.48,4.52,4.52,0,0,0-2.92.82,3,3,0,0,0-1,2.45,2.78,2.78,0,0,0,.53,1.73,4.58,4.58,0,0,0,1.57,1.22l4.2,2.12a7.45,7.45,0,0,1,2.69,2.13,4.86,4.86,0,0,1,.89,2.92,4.27,4.27,0,0,1-1.67,3.69A8.43,8.43,0,0,1,209.22,194.73Z"/><path class="cls-14" d="M236.91,194.46V175h1.8v19.42Zm0-17.74V175h12.41v1.68Zm0,8.86v-1.69h10v1.69Zm0,8.88v-1.68h12.41v1.68Z"/><path class="cls-14" d="M258.22,194.73a5.15,5.15,0,0,1-4.31-1.87,8.81,8.81,0,0,1-1.47-5.51,9.32,9.32,0,0,1,1.48-5.72,5.92,5.92,0,0,1,7.44-1.09,3.69,3.69,0,0,1,1.46,2.47h1l-.85,4a6.84,6.84,0,0,0-1.11-4.23,3.87,3.87,0,0,0-3.26-1.43,3.75,3.75,0,0,0-3.24,1.51,7.66,7.66,0,0,0-1.1,4.49,7,7,0,0,0,1.1,4.27,4.37,4.37,0,0,0,6.5,0,6.8,6.8,0,0,0,1.11-4.21l1,3.87h-1.13a3.88,3.88,0,0,1-1.42,2.51A5,5,0,0,1,258.22,194.73Zm5-.14-.29-3.48V174h1.82V194.5Z"/><path class="cls-14" d="M269.72,194.46v-1.67h6.13v1.67Zm.82-12.83V180h6.85v1.67Zm5.8-4.82a1.59,1.59,0,1,1,1.12-.47A1.53,1.53,0,0,1,276.34,176.81Zm-.78,17.65V180.68h1.83v13.78Zm1.54,0v-1.67h5.06v1.67Z"/><path class="cls-14" d="M284.9,181.63V180h12.68v1.67Zm4.17,6v-12h1.83v12Zm5.48,7.11a5.39,5.39,0,0,1-4.14-1.44,6.21,6.21,0,0,1-1.34-4.4v-2.36h1.83v2.32a4.5,4.5,0,0,0,1,3.15,3.86,3.86,0,0,0,3,1c.53,0,1,0,1.54-.07s1-.12,1.57-.2l.2,1.65c-.6.11-1.19.19-1.76.25S295.19,194.73,294.55,194.73Z"/><path class="cls-14" d="M308.33,194.73a5.51,5.51,0,0,1-4.51-2,10.39,10.39,0,0,1,0-11.11,6.18,6.18,0,0,1,9,0,10.39,10.39,0,0,1,0,11.11A5.52,5.52,0,0,1,308.33,194.73Zm0-1.71a3.65,3.65,0,0,0,3.14-1.52,8.86,8.86,0,0,0,0-8.59,4,4,0,0,0-6.28,0,8.86,8.86,0,0,0,0,8.59A3.66,3.66,0,0,0,308.33,193Z"/><path class="cls-14" d="M317.85,194.46v-1.67h9.46v1.67Zm.54-12.83V180h4.09l.08,1.67Zm3,12.83V180h1.46l.37,4.16v10.34Zm1.83-6.24-.85-4.54h1q.5-4,4.27-4A4.09,4.09,0,0,1,331,181a6.55,6.55,0,0,1,1.05,4.15h-1.84a5,5,0,0,0-.66-2.9,2.51,2.51,0,0,0-2.15-.88,3.39,3.39,0,0,0-3.16,1.79A10.24,10.24,0,0,0,323.22,188.22Z"/></g></g></g></svg>