<svg xmlns="http://www.w3.org/2000/svg" viewBox="0 0 426.88 193.02"><defs><style>.cls-1,.cls-8,.cls-9{font-size:72px;}.cls-1,.cls-11,.cls-12,.cls-13,.cls-8,.cls-9{font-family:YuGothic-Bold, Yu Gothic;font-weight:700;}.cls-2{letter-spacing:-0.02em;}.cls-3{letter-spacing:-0.05em;}.cls-4{letter-spacing:-0.1em;}.cls-5{letter-spacing:-0.23em;}.cls-6{letter-spacing:-0.09em;}.cls-7{letter-spacing:-0.04em;}.cls-12,.cls-8{fill:none;stroke-width:12px;}.cls-8{stroke:#144da0;}.cls-9{fill:#70acce;}.cls-10{font-size:27px;font-family:KozGoPr6N-Regular-90ms-RKSJ-H, Kozuka Gothic Pr6N;}.cls-10,.cls-13,.cls-14{fill:#fff;}.cls-11,.cls-12,.cls-13{font-size:59px;}.cls-12{stroke:#70acce;}</style></defs><g id="Layer_2" data-name="Layer 2"><g id="Layer_1のコピー_2" data-name="Layer 1のコピー 2"><g id="Layer_2のコピー" data-name="Layer 2のコピー"><text class="cls-1" transform="translate(6 143.49)">E<tspan class="cls-2" x="46.65" y="0">S</tspan><tspan class="cls-3" x="92.32" y="0">エ</tspan><tspan class="cls-4" x="160.73" y="0">デ</tspan><tspan class="cls-5" x="225.25" y="0">ィ</tspan><tspan class="cls-6" x="280.41" y="0">タ</tspan><tspan class="cls-7" x="345.83" y="0">ー</tspan></text><text class="cls-8" transform="translate(6 143.49)">E<tspan class="cls-2" x="46.65" y="0">S</tspan><tspan class="cls-3" x="92.32" y="0">エ</tspan><tspan class="cls-4" x="160.73" y="0">デ</tspan><tspan class="cls-5" x="225.25" y="0">ィ</tspan><tspan class="cls-6" x="280.41" y="0">タ</tspan><tspan class="cls-7" x="345.83" y="0">ー</tspan></text><text class="cls-9" transform="translate(6 143.49)">E<tspan class="cls-2" x="46.65" y="0">S</tspan><tspan class="cls-3" x="92.32" y="0">エ</tspan><tspan class="cls-4" x="160.73" y="0">デ</tspan><tspan class="cls-5" x="225.25" y="0">ィ</tspan><tspan class="cls-6" x="280.41" y="0">タ</tspan><tspan class="cls-7" x="345.83" y="0">ー</tspan></text><text class="cls-10" transform="translate(145.34 61.62)">生のための</text><text class="cls-11" transform="translate(11.3 57.91)">就活</text><text class="cls-12" transform="translate(11.3 57.91)">就活</text><text class="cls-13" transform="translate(11.3 57.91)">就活</text><path class="cls-14" d="M12.09,186.73a16.38,16.38,0,0,1-2.95-.25,13.25,13.25,0,0,1-2.6-.72l.24-1.8a19,19,0,0,0,2.82.83,13.36,13.36,0,0,0,2.71.29,6.08,6.08,0,0,0,3.48-.81,2.78,2.78,0,0,0,1.15-2.45,3.34,3.34,0,0,0-2-3.13l-4.6-2.36a6.72,6.72,0,0,1-2.42-1.9,4.36,4.36,0,0,1-.82-2.7A4.65,4.65,0,0,1,8.51,168a6.39,6.39,0,0,1,4.29-1.26,9.23,9.23,0,0,1,3.33.57,8.09,8.09,0,0,1,2.74,1.77l-1.23,1.24a9.85,9.85,0,0,0-2.43-1.45,6.34,6.34,0,0,0-2.4-.48,4.54,4.54,0,0,0-2.92.82,3,3,0,0,0-1,2.45,2.73,2.73,0,0,0,.54,1.73A4.4,4.4,0,0,0,11,174.64l4.2,2.12a7.41,7.41,0,0,1,2.68,2.13,4.8,4.8,0,0,1,.9,2.92,4.3,4.3,0,0,1-1.67,3.69A8.46,8.46,0,0,1,12.09,186.73Z"/><path class="cls-14" d="M28.07,186.46,21.93,172h2l5.36,12.95h.34l0,1.55ZM22.21,193l-.09-1.7,1.37-.2a6.15,6.15,0,0,0,2.43-.92,7,7,0,0,0,1.93-2.08,19.48,19.48,0,0,0,1.7-3.63L34,172h2l-5,13.21a22.48,22.48,0,0,1-2,4.21,8.07,8.07,0,0,1-2.29,2.41,6.79,6.79,0,0,1-2.88,1Z"/><path class="cls-14" d="M44.6,186.73a4.91,4.91,0,0,1-3.71-1.36,5.33,5.33,0,0,1-1.31-3.83V172H41.4v9.58a3.39,3.39,0,0,0,.94,2.58A3.66,3.66,0,0,0,45,185a3.73,3.73,0,0,0,3-1.21,6.26,6.26,0,0,0,1-4.05l.74,3.91h-.88a3.94,3.94,0,0,1-1.51,2.26A4.71,4.71,0,0,1,44.6,186.73ZM49,182.36V172h1.82v10.49Zm.25,4.23-.18-3.47L49,180.58h1.82v4.33l2,.19v1.36Z"/><path class="cls-14" d="M56.18,186.46V166H58v20.51Zm.94-5.77V179h1.81a9,9,0,0,0,3.79-.69,5,5,0,0,0,2.33-2.24A12.64,12.64,0,0,0,66.3,172h1.91q-.66,4.51-2.79,6.62a8.26,8.26,0,0,1-6.08,2.11Zm9.78,5.77-4.14-7.33,1.62-.85,4.76,8.18Z"/><path class="cls-14" d="M76.29,186.73a5.05,5.05,0,0,1-3.38-1,3.57,3.57,0,0,1-1.2-2.88,4,4,0,0,1,1.61-3.44,8.06,8.06,0,0,1,4.75-1.16,24.55,24.55,0,0,1,2.68.13,8.1,8.1,0,0,1,2,.43l-.29,1.39a7.83,7.83,0,0,0-2.09-.33c-.8,0-1.58,0-2.33,0-3,0-4.51,1-4.51,2.92a2.18,2.18,0,0,0,.77,1.78,3.42,3.42,0,0,0,2.17.62,6.3,6.3,0,0,0,2.65-.52,4.45,4.45,0,0,0,1.78-1.37,3.06,3.06,0,0,0,.64-1.89v-1.66l1,3.71H81.29l.31-.32a3.19,3.19,0,0,1-.78,1.92A4.55,4.55,0,0,1,79,186.27,7.17,7.17,0,0,1,76.29,186.73Zm5.62-.14-.22-5.23-.18-.18v-3.32a4,4,0,0,0-1.19-3.22,6,6,0,0,0-3.76-1.06l-3.07-.06.27-1.69,2.71,0q3.56.06,5.19,1.57a6.08,6.08,0,0,1,1.64,4.69v6.75l2.49.22v1.36Z"/><path class="cls-14" d="M87.76,173.63V172h12.69v1.67Zm4.17,6v-12h1.83v12Zm5.48,7.11a5.39,5.39,0,0,1-4.14-1.44,6.26,6.26,0,0,1-1.34-4.4v-2.36h1.83v2.32a4.5,4.5,0,0,0,1,3.15,3.9,3.9,0,0,0,3,1c.53,0,1,0,1.54-.07s1-.12,1.56-.2l.21,1.65c-.61.11-1.19.19-1.77.25S98.05,186.73,97.41,186.73Z"/><path class="cls-14" d="M110.07,186.73c-1.06,0-2,0-2.71-.1a12.81,12.81,0,0,1-2-.31l.22-1.74c.94.15,1.77.26,2.48.33a18.11,18.11,0,0,0,2,.11,9.93,9.93,0,0,0,3.89-.56,2,2,0,0,0,.65-3.21,3.78,3.78,0,0,0-1.79-.85l-3.25-.82a7,7,0,0,1-3.06-1.42,3.05,3.05,0,0,1-1-2.33,3.34,3.34,0,0,1,1.77-3.16,12.48,12.48,0,0,1,5.72-1c.64,0,1.24,0,1.79.06s1.16.11,1.82.21l-.2,1.63c-.74-.07-1.38-.12-1.94-.15s-1.06,0-1.55,0a11.36,11.36,0,0,0-4.22.57,1.89,1.89,0,0,0-1.31,1.82,1.55,1.55,0,0,0,.65,1.27,5.68,5.68,0,0,0,2.13.88l2.6.63a7,7,0,0,1,3.23,1.5,3.43,3.43,0,0,1,1,2.57,3.35,3.35,0,0,1-1.65,3.12A10.94,10.94,0,0,1,110.07,186.73Z"/><path class="cls-14" d="M126.63,186.73a4.88,4.88,0,0,1-3.7-1.36,5.29,5.29,0,0,1-1.32-3.83V172h1.82v9.58a3.4,3.4,0,0,0,.95,2.58,3.62,3.62,0,0,0,2.62.9,3.76,3.76,0,0,0,3-1.21,6.32,6.32,0,0,0,1-4.05l.74,3.91h-.88a3.94,3.94,0,0,1-1.51,2.26A4.71,4.71,0,0,1,126.63,186.73Zm4.43-4.37V172h1.82v10.49Zm.25,4.23-.18-3.47-.07-2.54h1.82v4.33l2,.19v1.36Z"/><path class="cls-14" d="M154.62,186.46V167h1.8v19.42Zm0-17.74V167H167v1.68Zm0,8.86v-1.69h9.95v1.69Zm0,8.88v-1.68H167v1.68Z"/><path class="cls-14" d="M176.15,186.73a16.38,16.38,0,0,1-3-.25,13.25,13.25,0,0,1-2.6-.72l.25-1.8a18.54,18.54,0,0,0,2.81.83,13.36,13.36,0,0,0,2.71.29,6.08,6.08,0,0,0,3.48-.81,2.78,2.78,0,0,0,1.15-2.45,3.35,3.35,0,0,0-2-3.13l-4.61-2.36a6.59,6.59,0,0,1-2.41-1.9,4.3,4.3,0,0,1-.83-2.7,4.62,4.62,0,0,1,1.46-3.7,6.36,6.36,0,0,1,4.28-1.26,9.23,9.23,0,0,1,3.33.57,8.09,8.09,0,0,1,2.74,1.77l-1.23,1.24a9.85,9.85,0,0,0-2.43-1.45,6.26,6.26,0,0,0-2.39-.48,4.52,4.52,0,0,0-2.92.82,3,3,0,0,0-1,2.45,2.73,2.73,0,0,0,.54,1.73,4.49,4.49,0,0,0,1.57,1.22l4.2,2.12a7.33,7.33,0,0,1,2.68,2.13,4.8,4.8,0,0,1,.9,2.92,4.3,4.3,0,0,1-1.67,3.69A8.46,8.46,0,0,1,176.15,186.73Z"/><path class="cls-14" d="M203.84,186.46V167h1.8v19.42Zm0-17.74V167h12.41v1.68Zm0,8.86v-1.69h9.95v1.69Zm0,8.88v-1.68h12.41v1.68Z"/><path class="cls-14" d="M225.15,186.73a5.13,5.13,0,0,1-4.31-1.87,8.81,8.81,0,0,1-1.47-5.51,9.32,9.32,0,0,1,1.48-5.72,5.92,5.92,0,0,1,7.44-1.09,3.68,3.68,0,0,1,1.45,2.47h1l-.85,4a6.77,6.77,0,0,0-1.12-4.23,3.86,3.86,0,0,0-3.26-1.43,3.73,3.73,0,0,0-3.23,1.51,7.66,7.66,0,0,0-1.1,4.49,7,7,0,0,0,1.1,4.27,4.37,4.37,0,0,0,6.5,0,6.8,6.8,0,0,0,1.11-4.21l1,3.87h-1.12a3.88,3.88,0,0,1-1.42,2.51A5,5,0,0,1,225.15,186.73Zm5-.14-.29-3.48V166h1.82V186.5Z"/><path class="cls-14" d="M236.65,186.46v-1.67h6.12v1.67Zm.82-12.83V172h6.85v1.67Zm5.8-4.82a1.55,1.55,0,0,1-1.13-.47,1.59,1.59,0,0,1,0-2.24,1.58,1.58,0,0,1,2.25,0,1.59,1.59,0,0,1,0,2.24A1.54,1.54,0,0,1,243.27,168.81Zm-.78,17.65V172.68h1.83v13.78Zm1.54,0v-1.67h5.06v1.67Z"/><path class="cls-14" d="M251.82,173.63V172h12.69v1.67Zm4.17,6v-12h1.84v12Zm5.49,7.11a5.43,5.43,0,0,1-4.15-1.44,6.26,6.26,0,0,1-1.34-4.4v-2.36h1.84v2.32a4.55,4.55,0,0,0,.95,3.15,3.9,3.9,0,0,0,3,1c.53,0,1,0,1.54-.07s1-.12,1.56-.2l.21,1.65c-.6.11-1.19.19-1.77.25S262.11,186.73,261.48,186.73Z"/><path class="cls-14" d="M275.26,186.73a5.51,5.51,0,0,1-4.51-2,10.33,10.33,0,0,1,0-11.11,6.18,6.18,0,0,1,9,0,10.44,10.44,0,0,1,0,11.11A5.52,5.52,0,0,1,275.26,186.73Zm0-1.71a3.66,3.66,0,0,0,3.14-1.52,8.86,8.86,0,0,0,0-8.59,4,4,0,0,0-6.28,0,8.86,8.86,0,0,0,0,8.59A3.65,3.65,0,0,0,275.26,185Z"/><path class="cls-14" d="M284.77,186.46v-1.67h9.46v1.67Zm.55-12.83V172h4.09l.08,1.67Zm3,12.83V172h1.47l.37,4.16v10.34Zm1.84-6.24-.85-4.54h1q.49-4,4.27-4A4.09,4.09,0,0,1,298,173a6.61,6.61,0,0,1,1,4.15h-1.83a5,5,0,0,0-.66-2.9,2.53,2.53,0,0,0-2.16-.88,3.39,3.39,0,0,0-3.15,1.79A10.13,10.13,0,0,0,290.15,180.22Z"/></g></g></g></svg>